<?xml version="1.0" encoding="UTF-8" ?>
<!DOCTYPE svg PUBLIC "-//W3C//DTD SVG 1.1//EN" "http://www.w3.org/Graphics/SVG/1.1/DTD/svg11.dtd">
<svg width="128pt" height="128pt" viewBox="0 0 128 128" version="1.1" xmlns="http://www.w3.org/2000/svg">
<g id="#ffffffff">
<path fill="#ffffff" opacity="1.00" d=" M 7.00 55.01 C 45.00 54.99 83.00 54.98 121.00 55.01 C 121.00 61.00 121.00 67.00 121.00 72.99 C 83.00 73.01 45.00 73.02 7.00 72.99 C 7.00 66.99 7.00 61.00 7.00 55.01 M 9.00 57.01 C 9.00 61.67 9.00 66.32 9.00 70.98 C 45.66 71.02 82.33 71.01 119.00 70.99 C 119.00 66.33 119.00 61.67 119.00 57.02 C 82.33 56.98 45.67 56.99 9.00 57.01 Z" />
</g>
<g id="#c8c8c8ff">
<path fill="#c8c8c8" opacity="1.00" d=" M 9.00 57.01 C 45.67 56.99 82.33 56.98 119.00 57.02 C 119.00 61.67 119.00 66.33 119.00 70.99 C 82.33 71.01 45.66 71.02 9.00 70.98 C 9.00 66.32 9.00 61.67 9.00 57.01 Z" />
</g>
</svg>
