<svg xmlns="http://www.w3.org/2000/svg" viewBox="0 0 512 512" style="height: 200px; width: 200px;"><g class="" transform="translate(0,0)" style=""><path d="M256 16c25 24 100 72 150 72v96c0 96-75 240-150 312-75-72-150-216-150-312V88c50 0 125-48 150-72z" fill="#000000" fill-opacity="1" stroke="#ffffff" stroke-opacity="1" stroke-width="10"></path></g><g class="" transform="translate(145,88)" style=""><g transform="translate(6.4, 6.4) scale(0.8, 0.8) rotate(0, 128, 128)"><circle cx="128" cy="128" r="128" fill="#ffffff" fill-opacity="1"></circle><circle stroke="#000000" stroke-opacity="1" fill="#ffffff" fill-opacity="1" stroke-width="18" cx="128" cy="128" r="101"></circle><path fill="#000000" fill-opacity="1" d="M64 94l64-38 64 38c0 32-48 108-64 108-16 .25-64-76-64-108z"></path></g></g></svg>