<?xml version="1.0" encoding="UTF-8" ?>
<!DOCTYPE svg PUBLIC "-//W3C//DTD SVG 1.1//EN" "http://www.w3.org/Graphics/SVG/1.1/DTD/svg11.dtd">
<svg width="128pt" height="128pt" viewBox="0 0 128 128" version="1.1" xmlns="http://www.w3.org/2000/svg">
<g id="#ffffffff">
<path fill="#ffffff" opacity="1.00" d=" M 7.00 23.01 C 45.00 22.99 83.00 22.99 121.00 23.01 C 121.00 29.00 121.00 35.00 121.00 40.99 C 83.00 41.01 45.00 41.01 7.00 40.99 C 7.00 35.00 7.00 29.00 7.00 23.01 M 9.00 25.01 C 9.00 29.67 9.00 34.33 9.00 38.99 C 45.67 39.01 82.33 39.01 119.00 38.99 C 119.00 34.33 119.00 29.67 119.00 25.01 C 82.33 24.99 45.67 24.99 9.00 25.01 Z" />
<path fill="#ffffff" opacity="1.00" d=" M 7.00 55.01 C 45.00 54.99 83.00 54.99 121.00 55.01 C 121.00 61.00 121.00 67.00 121.00 72.99 C 83.00 73.01 45.00 73.01 7.00 72.99 C 7.00 67.00 7.00 61.00 7.00 55.01 M 9.00 57.01 C 9.00 61.67 9.00 66.33 9.00 70.99 C 45.67 71.01 82.33 71.01 119.00 70.99 C 119.00 66.33 119.00 61.67 119.00 57.01 C 82.33 56.99 45.67 56.99 9.00 57.01 Z" />
<path fill="#ffffff" opacity="1.00" d=" M 7.00 87.01 C 45.00 86.99 83.00 86.99 121.00 87.01 C 121.00 93.00 121.00 99.00 121.00 104.99 C 83.00 105.01 45.00 105.01 7.00 104.99 C 7.00 98.99 7.00 93.00 7.00 87.01 M 9.00 89.01 C 9.00 93.67 9.00 98.32 9.00 102.99 C 45.67 103.01 82.33 103.01 119.00 102.99 C 119.00 98.33 119.00 93.67 119.00 89.01 C 82.33 88.99 45.67 88.99 9.00 89.01 Z" />
</g>
<g id="#c8c8c8ff">
<path fill="#c8c8c8" opacity="1.00" d=" M 9.00 25.01 C 45.67 24.99 82.33 24.99 119.00 25.01 C 119.00 29.67 119.00 34.33 119.00 38.99 C 82.33 39.01 45.67 39.01 9.00 38.99 C 9.00 34.33 9.00 29.67 9.00 25.01 Z" />
<path fill="#c8c8c8" opacity="1.00" d=" M 9.00 57.01 C 45.67 56.99 82.33 56.99 119.00 57.01 C 119.00 61.67 119.00 66.33 119.00 70.99 C 82.33 71.01 45.67 71.01 9.00 70.99 C 9.00 66.33 9.00 61.67 9.00 57.01 Z" />
<path fill="#c8c8c8" opacity="1.00" d=" M 9.00 89.01 C 45.67 88.99 82.33 88.99 119.00 89.01 C 119.00 93.67 119.00 98.33 119.00 102.99 C 82.33 103.01 45.67 103.01 9.00 102.99 C 9.00 98.32 9.00 93.67 9.00 89.01 Z" />
</g>
</svg>
